Coordinates
version=1
nRows=23
nColumns=38
inDegrees=no

Units are S.I. units (second, meters, Newtons, ...)
If the header above contains a line with 'inDegrees', this indicates whether rotational values are in degrees (yes) or radians (no).

endheader
time	pelvis_tilt	pelvis_list	pelvis_rotation	pelvis_tx	pelvis_ty	pelvis_tz	hip_flexion_r	hip_adduction_r	hip_rotation_r	knee_angle_r	ankle_angle_r	subtalar_angle_r	mtp_angle_r	hip_flexion_l	hip_adduction_l	hip_rotation_l	knee_angle_l	ankle_angle_l	subtalar_angle_l	mtp_angle_l	lumbar_extension	lumbar_bending	lumbar_rotation	arm_flex_r	arm_add_r	arm_rot_r	elbow_flex_r	pro_sup_r	wrist_flex_r	wrist_dev_r	arm_flex_l	arm_add_l	arm_rot_l	elbow_flex_l	pro_sup_l	wrist_flex_l	wrist_dev_l
2.65751	-0.161798	-0.0365368	-3.14213	-0.331825	0.981451	0.00264277	0.258453	-0.16053	-0.16739	1.17291	-0.0750155	0	0	-0.0357131	0.10147	-0.0427789	0.291343	0.162451	0	0	-0.410823	-0.0399896	-0.00409026	0.21845	-0.313588	1.57928	0.410064	0.0243961	0	0	0.470395	-0.273506	1.57472	0.482026	0.112691	0	0
2.6675	-0.161508	-0.0333195	-3.13491	-0.330072	0.982105	0.00381079	0.277032	-0.156251	-0.17637	1.14463	-0.0585193	0	0	-0.0575263	0.0994827	-0.0320218	0.275154	0.167388	0	0	-0.411688	-0.0324402	-0.0115276	0.199373	-0.318022	1.5768	0.405238	0.0152331	0	0	0.504268	-0.276746	1.57092	0.501225	0.140176	0	0
2.67749	-0.161794	-0.0310292	-3.12842	-0.328309	0.982408	0.00485917	0.293784	-0.152738	-0.184883	1.11244	-0.043501	0	0	-0.0795034	0.0981876	-0.0218982	0.25976	0.172771	0	0	-0.413135	-0.0262645	-0.0186192	0.180947	-0.322503	1.57397	0.400781	0.00816762	0	0	0.537512	-0.280831	1.56496	0.521532	0.169479	0	0
2.68748	-0.162605	-0.0296513	-3.12287	-0.326551	0.982361	0.00577502	0.308767	-0.149853	-0.192641	1.07641	-0.0300222	0	0	-0.101582	0.0976294	-0.0125863	0.245245	0.178673	0	0	-0.415129	-0.021499	-0.0252858	0.163273	-0.326963	1.57081	0.396634	0.0030049	0	0	0.569878	-0.285759	1.55636	0.542881	0.200245	0	0
2.69747	-0.163865	-0.0291316	-3.11844	-0.324816	0.981975	0.00654894	0.322039	-0.147415	-0.199404	1.03663	-0.0180856	0	0	-0.123687	0.0978174	-0.00423074	0.231671	0.185151	0	0	-0.417595	-0.0181185	-0.0314609	0.146426	-0.33135	1.56735	0.392747	-0.000531195	0	0	0.601108	-0.29151	1.54468	0.565167	0.232179	0	0
2.70746	-0.165467	-0.0293838	-3.11525	-0.323123	0.981261	0.00717514	0.333666	-0.145212	-0.204986	0.993147	-0.00763941	0	0	-0.145721	0.0987273	0.00306988	0.219074	0.192241	0	0	-0.420418	-0.016042	-0.0370941	0.130452	-0.335631	1.56358	0.389077	-0.00274672	0	0	0.630952	-0.298034	1.52966	0.588241	0.265011	0	0
2.71745	-0.167279	-0.0302959	-3.11338	-0.321494	0.980236	0.00765157	0.343732	-0.14302	-0.209248	0.946057	0.00142282	0	0	-0.167569	0.100303	0.00926596	0.207472	0.199962	0	0	-0.423443	-0.0151415	-0.0421475	0.115369	-0.339777	1.55954	0.385568	-0.00394244	0	0	0.659202	-0.305239	1.51127	0.611885	0.298447	0	0
2.72744	-0.169151	-0.0317376	-3.1128	-0.31995	0.978917	0.00797973	0.352339	-0.14062	-0.212085	0.895483	0.00925221	0	0	-0.189097	0.102458	0.0143514	0.196865	0.208316	0	0	-0.426485	-0.0152539	-0.04658	0.101164	-0.343761	1.55535	0.382147	-0.00439175	0	0	0.685726	-0.312965	1.4899	0.635802	0.332071	0	0
2.73743	-0.170917	-0.0335682	-3.11346	-0.31851	0.977327	0.00816373	0.359616	-0.137808	-0.213414	0.841634	0.0160366	0	0	-0.210161	0.105083	0.0183539	0.187242	0.217293	0	0	-0.42934	-0.0161923	-0.0503469	0.0877923	-0.347556	1.55116	0.378727	-0.00432878	0	0	0.71046	-0.32101	1.46621	0.659646	0.365375	0	0
2.74742	-0.172415	-0.0356402	-3.11525	-0.317192	0.975487	0.00821015	0.365718	-0.134407	-0.213169	0.784831	0.021999	0	0	-0.230608	0.108044	0.0213353	0.178584	0.226871	0	0	-0.431802	-0.017749	-0.0534145	0.0751896	-0.351139	1.54704	0.375235	-0.00394389	0	0	0.733381	-0.32915	1.44096	0.683064	0.397851	0	0
2.75741	-0.173498	-0.0378006	-3.118	-0.316012	0.973425	0.00812813	0.370807	-0.130266	-0.211297	0.725531	0.0273933	0	0	-0.250299	0.111181	0.0233888	0.170887	0.237015	0	0	-0.433693	-0.0196957	-0.0557731	0.0632821	-0.354495	1.54304	0.371617	-0.00338434	0	0	0.75448	-0.337175	1.41486	0.705742	0.429077	0	0
2.7674	-0.174048	-0.0398987	-3.12151	-0.314983	0.971167	0.00792899	0.375054	-0.125269	-0.207748	0.664353	0.0325054	0	0	-0.269103	0.114318	0.0246385	0.164172	0.247674	0	0	-0.434867	-0.0217928	-0.0574481	0.0520019	-0.357612	1.53914	0.367842	-0.00275806	0	0	0.773745	-0.344902	1.38848	0.72742	0.458783	0	0
2.77739	-0.173979	-0.0417915	-3.12555	-0.314118	0.968745	0.00762539	0.378628	-0.119345	-0.202476	0.602098	0.0376446	0	0	-0.286904	0.117268	0.0252217	0.158503	0.258792	0	0	-0.435222	-0.0238026	-0.0584969	0.0412917	-0.360476	1.53531	0.363896	-0.00213931	0	0	0.79116	-0.352186	1.36228	0.747902	0.486809	0	0
2.78739	-0.173257	-0.043351	-3.12988	-0.313424	0.96619	0.00723077	0.381692	-0.112469	-0.195442	0.539751	0.0431281	0	0	-0.303615	0.119842	0.025277	0.153983	0.270299	0	0	-0.434714	-0.0255003	-0.0590033	0.0311087	-0.36308	1.5315	0.359794	-0.00157484	0	0	0.806706	-0.358917	1.33656	0.767055	0.513089	0	0
2.79738	-0.171911	-0.0444724	-3.13425	-0.312909	0.963538	0.0067594	0.384377	-0.10468	-0.18665	0.478468	0.0492483	0	0	-0.319199	0.12186	0.0249446	0.150747	0.282112	0	0	-0.433371	-0.0266868	-0.0590768	0.0214228	-0.365422	1.52758	0.355577	-0.0010901	0	0	0.82037	-0.365024	1.31154	0.7848	0.537633	0	0
2.80737	-0.170034	-0.0450807	-3.13841	-0.312578	0.960826	0.00622691	0.386777	-0.0960894	-0.176186	0.419537	0.0562091	0	0	-0.333679	0.123161	0.0243721	0.14895	0.294111	0	0	-0.431301	-0.0271975	-0.0588462	0.0122181	-0.367512	1.52341	0.351313	-0.000694831	0	0	0.832154	-0.370459	1.28736	0.80112	0.560479	0	0
2.81736	-0.16778	-0.0451337	-3.14211	-0.312435	0.958093	0.00564998	0.388942	-0.0868829	-0.164269	0.364331	0.0640408	0	0	-0.347136	0.12361	0.0237147	0.148752	0.306141	0	0	-0.428676	-0.0269071	-0.0584587	0.00349512	-0.369358	1.51885	0.347091	-0.000387944	0	0	0.84208	-0.375199	1.26411	0.816043	0.581652	0	0
2.82735	-0.16535	-0.0446198	-3.14514	-0.312479	0.955381	0.00504525	0.390898	-0.077307	-0.15128	0.31424	0.0725194	0	0	-0.359698	0.1231	0.0231285	0.150307	0.318004	0	0	-0.425727	-0.0257336	-0.058062	-0.00472975	-0.370968	1.51382	0.343007	-0.000161409	0	0	0.850208	-0.379226	1.24189	0.829618	0.601115	0	0
2.83734	-0.162959	-0.0435547	-3.1473	-0.312708	0.952729	0.00442801	0.39266	-0.067647	-0.137767	0.270596	0.0811369	0	0	-0.371513	0.121554	0.0227562	0.153758	0.329458	0	0	-0.422694	-0.0236376	-0.0578024	-0.0124271	-0.372343	1.50829	0.339156	-3.33598e-06	0	0	0.856615	-0.382539	1.22083	0.841901	0.618785	0	0
2.84733	-0.160803	-0.0419813	-3.14841	-0.313125	0.95017	0.00381104	0.394262	-0.0582036	-0.124415	0.234579	0.0891425	0	0	-0.382707	0.118925	0.0227166	0.159237	0.340211	0	0	-0.419782	-0.0206225	-0.0578296	-0.0195581	-0.373473	1.50235	0.33562	9.97752e-05	0	0	0.861367	-0.385161	1.20101	0.852967	0.634593	0	0
2.85732	-0.159032	-0.0399586	-3.14832	-0.313732	0.947732	0.00320412	0.395765	-0.0492613	-0.11199	0.207119	0.0956235	0	0	-0.393352	0.115188	0.0230926	0.166873	0.349917	0	0	-0.41713	-0.0167221	-0.0582903	-0.0260801	-0.37434	1.49617	0.332463	0.000161456	0	0	0.864502	-0.38714	1.18252	0.862896	0.648526	0	0
2.86731	-0.157739	-0.0375424	-3.14695	-0.314536	0.945435	0.00261366	0.397233	-0.041052	-0.10125	0.18878	0.099611	0	0	-0.403454	0.110322	0.0239099	0.176796	0.358184	0	0	-0.414796	-0.0119805	-0.059317	-0.0319483	-0.374916	1.49005	0.329731	0.000194245	0	0	0.86602	-0.388542	1.16539	0.871769	0.660628	0	0
2.8773	-0.156959	-0.0347661	-3.14421	-0.315545	0.943292	0.00204255	0.398717	-0.0337255	-0.0928412	0.179656	0.100198	0	0	-0.412934	0.104292	0.0251113	0.189147	0.364594	0	0	-0.41276	-0.00643139	-0.0610136	-0.0371175	-0.375178	1.48432	0.327447	0.000209072	0	0	0.865885	-0.389439	1.14963	0.879654	0.671	0	0
